<?xml version="1.0" encoding="utf-8"?>
<!-- Generator: Adobe Illustrator 26.0.1, SVG Export Plug-In . SVG Version: 6.00 Build 0)  -->
<svg version="1.1" id="Warstwa_1" xmlns="http://www.w3.org/2000/svg" xmlns:xlink="http://www.w3.org/1999/xlink" x="0px" y="0px"
	 viewBox="0 0 410.2 449.6" style="enable-background:new 0 0 410.2 449.6;" xml:space="preserve">
<style type="text/css">
	.st0{fill:#E0DFE5;}
</style>
<path class="st0" d="M195,360.7c6.3-6.8,12.3-12.7,17.5-19.2c4.7-6,10.1-8.5,17.5-7.3c9.1,1.5,15.8-3.3,22-9
	c16.9-15.7,28-34.9,34.7-56.9c6.9-22.8,7.5-46,4.2-69.3c-2.4-16.8-8.5-32.9-17.7-47.2c-5.8-9.1-13-17-22.7-22.2
	c-1.1-0.6-2.4-1-4-1.7c-0.1,1.5-0.3,2.6-0.3,3.6c-0.1,4.7,0.2,9.4-0.2,14c-0.7,7.8,1.6,14.6,5,21.4c6.8,13.6,13.2,27.5,19.9,41.2
	c0.9,1.9,0.8,3.1-0.7,4.7c-7.3,7.5-14.6,15-21.7,22.7c-1.3,1.5-2.1,3.5-2.2,5.5c-0.1,17.9-0.1,35.9,0,53.8c0,9.7-7.9,17.6-17.6,17.7
	c-6.7,0.1-13.4,0-20,0.2c-1.6,0.1-3.1,0.8-4.2,1.9c-19.3,20.9-38.6,41.9-57.9,62.9c-3.7,4.1-9,6.4-14.6,6.2
	c-15.9-0.1-31.9,0-47.8,0.1c-6.9,0-13.1-5.6-13.2-12.4c-0.1-7.4,5.8-13.8,13-13.8c13.2,0,26.5-0.1,39.8,0.1c2.7,0.2,5.3-1,7-3
	c18.2-19.6,36.4-39.1,54.6-58.6c1.6-1.7,3.1-3.5,4.8-5.1c3.1-2.9,6.6-4.7,11.1-4.5c6,0.2,12,0,18.3,0c0.1-1.7,0.2-3,0.2-4.2
	c0.1-18,0.1-36.1,0.3-54.1c0.1-1.8,0.7-3.6,1.9-5c4.9-5.6,9.9-11.1,15.1-16.5c1.6-1.6,1.8-2.8,0.7-4.9
	c-5.8-11.5-11.4-23.2-16.9-34.8c-0.8-1.8-1.2-3.8-1.2-5.8c-0.1-10.2-0.2-20.5,0-30.7c0.1-3.1-1-3.9-4-3.9
	c-39.1,0.1-78.2,0.1-117.3,0c-8,0-13.7-5.2-13.8-12.7c-0.3-7.5,5.5-13.7,13-14c0.3,0,0.6,0,0.9,0l135.7,0.1c8.7,0,17.3,0.2,25.5,3.8
	c12.3,5.4,21.9,14,30.2,24.2c14.2,17.4,22.5,37.4,26.7,59.3c3,15.3,4.3,30.9,3.6,46.5c-2.1,42.3-17.8,78.8-47.6,109
	c-4.9,4.9-10.1,9.4-15.3,14c-3.3,2.9-7.6,4.4-12,4.2c-15.4-0.1-30.7,0-46.1,0C198.1,361,197,360.9,195,360.7z"/>
<path class="st0" d="M166.4,52c24.7,0,49.5,0.1,74.2,0c23.4-0.1,44.8,6.8,64.6,18.7c40.7,24.4,66.1,60.4,78.3,106
	c6.2,23.4,7.5,47.1,5.2,71.2c-3.5,35.3-15.2,67.5-36.4,95.8s-48.1,49.5-82.3,60.4c-13.3,4.1-27.1,6.2-41.1,6.1
	c-16.9,0-33.9,0.1-50.8,0.2c-6.4,0-11.1-3-12.8-8.2c-1.8-5.3,0.3-12.3,5.2-15.3c2.9-1.8,6.2-2.8,9.6-3c17.3-0.3,34.5-0.4,51.8,0
	c13.5,0.3,26-2.8,38.2-8c26.1-11.1,46.5-29,62.7-51.9c18-25.2,26.8-53.7,29.2-84.4c2.6-31.5-4.2-63.1-19.4-90.8
	c-17.4-32.2-42.8-55.5-78.1-67c-8.1-2.6-16.5-3.8-25-3.7c-48.2,0-96.5-0.1-144.7-0.1c-3.7,0-7.4,0-11-0.1
	c-7.2-0.1-13.1-5.8-13.2-12.4c0-7.9,5.3-13.3,13.1-13.3C111.4,52.1,138.9,52.1,166.4,52L166.4,52z"/>
<path class="st0" d="M83.3,220.5c-23.2,0-46.3,0-69.4,0c-5.9,0-11.1-3.2-12.8-7.9c-2.1-5.9-0.8-12.4,3.8-15.8c2.4-1.8,5.2-2.8,8.2-3
	c46.6-0.2,93.3-0.2,139.9-0.1c8.2,0,13.9,5.6,13.8,13.1c-0.1,7.8-6.3,13.6-14.3,13.6L83.3,220.5L83.3,220.5z"/>
<path class="st0" d="M76.6,172.5c-14,0-28.1,0-42.1,0c-8.1,0-13.6-5-13.7-12.7c-0.2-7.5,5.6-13.8,13.1-14c0.1,0,0.3,0,0.4,0
	c28.6,0,57.3,0.1,85.9,0.3c8,0,13.9,6,13.9,13.5c0,6.7-6.7,12.8-14.1,12.8C105.6,172.5,91.1,172.5,76.6,172.5L76.6,172.5z"/>
<path class="st0" d="M77.9,307.7c14.4,0,28.7,0,43.1,0c8.6,0,14.8,6.9,13.4,14.6c-1.2,6.8-6.8,11.3-14,11.3
	c-26.4,0.1-52.7,0.1-79.1,0.1c-3.5,0-7.2,0.2-10.6-0.7c-6.4-1.6-10-7.7-8.9-14.4c0.9-6.3,6.4-11,12.8-11
	C49,307.6,63.5,307.6,77.9,307.7L77.9,307.7z"/>
<path class="st0" d="M91,245c9.6,0,19.1,0.3,28.7-0.1c8.7-0.4,14.9,5.8,15,13.1c0.1,8.1-6,13.7-15.1,13.7c-18.9,0-37.8,0-56.7,0
	c-2,0.1-4,0-5.9-0.4c-6.6-1.5-11-7.8-10.1-14.5c0.7-6.9,6.6-12,13.5-11.8C70.5,245.1,80.8,245.1,91,245L91,245z"/>
<path class="st0" d="M35.4,124.9c-9.9-0.1-17.2-7.8-17.1-18c0.1-9.7,8-17.9,17.2-17.9c9.4,0,18.1,8.6,18.1,18
	c0,9.9-8,17.9-17.9,17.9C35.6,124.9,35.5,124.9,35.4,124.9z"/>
</svg>
